:version 1.10
:name ASF
:units
  mass 1
  length 1
  angle deg
:documentation
  ASF file generated by Kaydara
:root
  axis xyz
  order  tx ty tz rx ry rz
  position 0 0 0
  orientation 0 0 0
:bonedata
  begin
    id 1
    name RightUpLegDummy
    direction -0.718183 -0.695806 0.00816078
    length 4.904
    axis 0 0 0 xyz
  end
  begin
    id 2
    name RightUpLeg
    direction 3.53373e-006 -0.995788 0.0916898
    length 17.4976
    axis -3.49089 -0.000906625 0.000286804 xyz
    dof rx ry rz
  end
  begin
    id 3
    name RightLeg
    direction 0.00371092 -0.995096 -0.0988419
    length 16.5821
    axis 3.68512 0.0193738 -0.131023 xyz
    dof rx ry rz
  end
  begin
    id 4
    name RightFoot
    direction 0.00079151 -0.46099 0.887405
    length 3.77069
    axis 4.81691e-005 -0.120479 -0.188788 xyz
    dof rx ry rz
  end
  begin
    id 5
    name RightToes
    direction 0 0 0
    length 0
    axis 0 0 0 xyz
    dof rx ry rz
  end
  begin
    id 6
    name SpineDummy
    direction 8.3039e-015 1 4.57515e-016
    length 4.6813
    axis 0 0 0 xyz
  end
  begin
    id 7
    name Spine
    direction -3.15643e-008 0.999988 0.00495137
    length 10.1015
    axis -0.001389 0.000121418 2.40972e-006 xyz
    dof rx ry rz
  end
  begin
    id 8
    name Spine1
    direction 0 0 0
    length 0
    axis -0.001389 0.000121451 1.30017e-006 xyz
    dof rx ry rz
  end
  begin
    id 9
    name HEadDummy
    direction -1.99912e-008 0.999999 0.00127422
    length 3.43865
    axis -0.001389 0.000121451 1.30017e-006 xyz
  end
  begin
    id 10
    name HEad
    direction 0 0 0
    length 0
    axis 0 0 0 xyz
    dof rx ry rz
  end
  begin
    id 11
    name LeftShoulder1Dummy
    direction 0.998891 -0.0402509 -0.0244456
    length 3.5433
    axis -0.001389 0.000121451 1.30017e-006 xyz
  end
  begin
    id 12
    name LeftShoulder1
    direction 0.99951 -0.000327763 0.0313091
    length 4.05031
    axis -0.001389 0.000121451 1.30017e-006 xyz
    dof rx ry rz
  end
  begin
    id 13
    name LeftArm
    direction 0.998561 -0.00100056 -0.0536182
    length 10.3537
    axis -23.1894 0.134784 0.967509 xyz
    dof rx ry rz
  end
  begin
    id 14
    name LeftForeArm
    direction 0.998903 0.00866432 0.046012
    length 8.70632
    axis -9.91835 -0.06569 -0.177794 xyz
    dof rx ry rz
  end
  begin
    id 15
    name LeftHand
    direction 0 0 0
    length 0
    axis 0 0 0 xyz
    dof rx ry rz
  end
  begin
    id 16
    name RightShoulderDummy
    direction -0.998891 -0.0402509 -0.0244414
    length 3.5433
    axis -0.001389 0.000121451 1.30017e-006 xyz
  end
  begin
    id 17
    name RightShoulder
    direction -0.99951 -0.000327807 0.0313133
    length 4.05031
    axis 0.215806 0.000203643 -0.0068026 xyz
    dof rx ry rz
  end
  begin
    id 18
    name RightArm
    direction -0.998573 -0.000999564 -0.053403
    length 10.3947
    axis -23.2009 -0.134239 -0.964101 xyz
    dof rx ry rz
  end
  begin
    id 19
    name RightForeArm
    direction -0.998898 0.00868028 0.0461306
    length 8.68355
    axis -9.92322 0.0658061 0.178868 xyz
    dof rx ry rz
  end
  begin
    id 20
    name RightHand
    direction 0 0 0
    length 0
    axis 0 0 0 xyz
    dof rx ry rz
  end
  begin
    id 21
    name LeftUpLegDummy
    direction 0.718183 -0.695806 0.00816078
    length 4.904
    axis 0 0 0 xyz
  end
  begin
    id 22
    name LeftUpLeg
    direction -6.81752e-006 -0.995793 0.0916337
    length 17.4976
    axis -3.48766 0.00143442 -0.000524262 xyz
    dof rx ry rz
  end
  begin
    id 23
    name LeftLeg
    direction -0.00601358 -0.995091 -0.0987824
    length 16.5821
    axis 3.68178 -0.00654042 -0.000285133 xyz
    dof rx ry rz
  end
  begin
    id 24
    name LeftFoot
    direction -0.00417578 -0.460984 0.887399
    length 3.77069
    axis 1.87233e-006 4.66016e-005 -8.6538e-006 xyz
    dof rx ry rz
  end
  begin
    id 25
    name LeftToes
    direction 0 0 0
    length 0
    axis 0 0 0 xyz
    dof rx ry rz
  end
:hierarchy
  begin
    root RightUpLegDummy SpineDummy LeftUpLegDummy
    RightUpLegDummy RightUpLeg
    RightUpLeg RightLeg
    RightLeg RightFoot
    RightFoot RightToes
    SpineDummy Spine
    Spine Spine1
    Spine1 HEadDummy LeftShoulder1Dummy RightShoulderDummy
    HEadDummy HEad
    LeftShoulder1Dummy LeftShoulder1
    LeftShoulder1 LeftArm
    LeftArm LeftForeArm
    LeftForeArm LeftHand
    RightShoulderDummy RightShoulder
    RightShoulder RightArm
    RightArm RightForeArm
    RightForeArm RightHand
    LeftUpLegDummy LeftUpLeg
    LeftUpLeg LeftLeg
    LeftLeg LeftFoot
    LeftFoot LeftToes
  end

:SAMPLES-PER-SECOND 30
:FULLY-SPECIFIED
:DEGREES
32
root  70.5429 40.3568 1.17257 -111.419 -87.641 111.7
RightUpLeg  0.507649 -10.3105 -9.03708
RightLeg  6.17957 -6.4604 3.25663
RightFoot  -5.32626 -0.178426 2.70736
RightToes  0.000481921 0.542163 -0.142578
Spine  2.91997 0.105137 -0.687466
Spine1  0.424543 -0.0866984 1.4533
HEad  -2.28656 5.26516 -0.519223
LeftShoulder1  0.678719 -0.0945522 -11.547
LeftArm  -19.0851 11.5308 -5.54481
LeftForeArm  26.4587 -8.37212 -1.30628
LeftHand  -0.25398 0.0180481 5.50724
RightShoulder  0.403027 -1.02277 8.79383
RightArm  -26.9637 -5.49101 3.98088
RightForeArm  -17.2357 8.54779 3.38383
RightHand  -3.74338 11.2485 -26.133
LeftUpLeg  -1.09747 3.79149 -0.0381266
LeftLeg  4.57922 17.176 -2.92119
LeftFoot  -5.22394 0.123926 -1.73748
LeftToes  1.06247e-005 4.65869e-005 -8.65512e-006
33
root  70.4711 40.308 1.31873 -121.805 -87.5099 121.707
RightUpLeg  0.527484 -10.3763 -9.22653
RightLeg  7.07919 -5.77399 3.01967
RightFoot  -5.97754 -0.186946 3.12252
RightToes  0.000481921 0.542163 -0.142578
Spine  2.99765 0.143214 -0.444909
Spine1  1.3041 -0.0229137 1.2537
HEad  -2.40554 5.16603 -0.644764
LeftShoulder1  0.740851 -0.0871071 -13.4576
LeftArm  -19.7147 12.522 -7.65575
LeftForeArm  27.8688 -11.2473 -1.51259
LeftHand  -0.25398 0.0180481 5.50724
RightShoulder  0.631498 -0.0519961 11.0901
RightArm  -25.9465 -7.33737 5.64392
RightForeArm  -17.8475 13.037 4.41405
RightHand  -4.14309 12.3189 -27.1348
LeftUpLeg  -0.948673 4.25605 -0.143706
LeftLeg  5.66283 17.2565 -2.5372
LeftFoot  -6.49209 0.135809 -2.2865
LeftToes  1.06247e-005 4.65869e-005 -8.65512e-006
34
root  70.39 40.2355 1.45427 -129.701 -87.3586 129.028
RightUpLeg  0.523702 -10.8877 -9.40042
RightLeg  8.52044 -4.76337 2.59056
RightFoot  -6.6823 -0.192096 3.60032
RightToes  0.000481921 0.542163 -0.142578
Spine  3.67226 0.25339 -0.368217
Spine1  1.47506 0.10634 1.06586
HEad  -2.02132 4.91254 -0.565457
LeftShoulder1  0.998239 -0.866812 -15.8805
LeftArm  -20.4664 13.5859 -10.1086
LeftForeArm  28.4554 -13.0539 -1.57508
LeftHand  -0.25398 0.0180481 5.50724
RightShoulder  0.958219 1.16368 13.5964
RightArm  -22.2343 -9.94799 7.77428
RightForeArm  -16.901 17.2498 5.20686
RightHand  -4.06438 12.3896 -26.5304
LeftUpLeg  -0.613252 4.98809 -0.147901
LeftLeg  6.84468 16.9306 -2.2307
LeftFoot  -7.72135 0.132592 -2.72165
LeftToes  1.06247e-005 4.65869e-005 -8.65512e-006
35
root  70.3046 40.1259 1.56934 -135.649 -87.0956 134.32
RightUpLeg  0.0369991 -12.2604 -9.45403
RightLeg  11.0067 -2.93491 1.65383
RightFoot  -7.70436 -0.180787 4.05881
RightToes  0.000481921 0.542163 -0.142578
Spine  4.56379 0.420894 -0.64154
Spine1  1.41864 0.22388 1.13397
HEad  -1.69799 4.6906 -0.681516
LeftShoulder1  1.47719 -2.16184 -19.4175
LeftArm  -20.9779 13.9274 -12.3679
LeftForeArm  27.2748 -13.0869 -1.552
LeftHand  -0.25398 0.0180481 5.50724
RightShoulder  1.34051 2.36427 16.1346
RightArm  -16.6785 -12.7578 10.4315
RightForeArm  -15.1838 20.9955 5.52057
RightHand  -3.6328 11.3496 -25.2535
LeftUpLeg  -0.297629 5.83269 -0.151077
LeftLeg  8.28737 16.3339 -1.92384
LeftFoot  -9.0274 0.115276 -3.03065
LeftToes  1.06247e-005 4.65869e-005 -8.65512e-006
36
root  70.2283 39.9864 1.67048 -142.319 -86.551 140.339
RightUpLeg  -1.55625 -13.3412 -9.3082
RightLeg  15.2064 -0.916567 0.244783
RightFoot  -8.70463 -0.174106 5.04889
RightToes  0.000481921 0.542163 -0.142578
Spine  5.42888 0.651283 -1.09009
Spine1  1.72586 0.382733 1.15658
HEad  -1.95796 4.49005 -0.979195
LeftShoulder1  2.13479 -3.56418 -23.8571
LeftArm  -20.7361 13.1802 -14.3393
LeftForeArm  24.3325 -11.687 -1.62806
LeftHand  -0.25398 0.0180481 5.50724
RightShoulder  1.7838 3.43145 19.2484
RightArm  -11.5913 -15.0807 13.1261
RightForeArm  -12.1457 23.9547 5.70081
RightHand  -3.18096 10.0827 -23.9803
LeftUpLeg  -0.0704363 6.76454 -0.159903
LeftLeg  9.9337 15.766 -1.63682
LeftFoot  -10.4796 0.0888596 -3.50739
LeftToes  1.06247e-005 4.65869e-005 -8.65512e-006
37
root  70.1664 39.8364 1.76194 -148.879 -85.6562 146.313
RightUpLeg  -4.63689 -11.491 -9.31468
RightLeg  21.6115 -1.30238 -0.881643
RightFoot  -8.20289 -0.252834 7.04483
RightToes  0.000481921 0.542163 -0.142578
Spine  6.40527 0.843813 -1.51634
Spine1  2.26821 0.571182 0.698304
HEad  -2.61277 4.48494 -1.00351
LeftShoulder1  2.92439 -4.99875 -28.2397
LeftArm  -20.1074 12.044 -16.3878
LeftForeArm  21.481 -10.0068 -1.86142
LeftHand  -0.25398 0.0180481 5.50724
RightShoulder  2.28283 4.37219 22.7466
RightArm  -7.94278 -16.7059 16.268
RightForeArm  -7.61601 25.3239 5.8103
RightHand  -2.79156 9.27926 -22.2654
LeftUpLeg  0.0919345 7.67127 -0.212858
LeftLeg  11.5633 15.6076 -1.39635
LeftFoot  -11.9003 0.0516444 -4.07707
LeftToes  1.06247e-005 4.65869e-005 -8.65512e-006
38
root  70.1011 39.7011 1.83731 -152.218 -84.6867 149.138
RightUpLeg  -8.94706 -9.30795 -9.7778
RightLeg  29.746 -2.41176 -1.71855
RightFoot  -5.07301 -0.562342 9.52628
RightToes  0.000481921 0.542163 -0.142578
Spine  7.66971 0.815549 -2.1201
Spine1  2.5269 0.545821 0.101272
HEad  -3.17422 5.04529 -0.450022
LeftShoulder1  3.85053 -6.58014 -32.0965
LeftArm  -19.4871 11.2243 -18.7848
LeftForeArm  20.4763 -9.07821 -2.15962
LeftHand  -0.25398 0.0180481 5.50724
RightShoulder  2.72567 5.14454 25.4238
RightArm  -5.5335 -18.1292 21.1294
RightForeArm  -2.8049 24.7988 5.44791
RightHand  -2.3816 8.66688 -19.9129
LeftUpLeg  0.296321 8.24865 -0.430128
LeftLeg  12.8792 15.8829 -1.15754
LeftFoot  -13.069 0.0119155 -4.42135
LeftToes  1.06247e-005 4.65869e-005 -8.65512e-006
39
root  69.997 39.5993 1.88309 -152.519 -84.1085 148.932
RightUpLeg  -13.6928 -8.79175 -10.288
RightLeg  38.1085 -2.86193 -2.67086
RightFoot  -0.654633 -1.08272 11.518
RightToes  0.000481921 0.542163 -0.142578
Spine  9.22883 0.513513 -3.21616
Spine1  2.2758 0.055497 0.268667
HEad  -3.90937 5.9949 -0.214947
LeftShoulder1  4.90454 -8.22328 -35.7139
LeftArm  -18.5093 10.4296 -21.344
LeftForeArm  21.7572 -9.22495 -2.65465
LeftHand  -0.25398 0.0180481 5.50724
RightShoulder  2.98627 5.60215 26.7482
RightArm  -5.24119 -19.8894 27.8578
RightForeArm  1.04665 23.0033 4.91925
RightHand  -2.01183 7.7977 -18.0093
LeftUpLeg  0.69758 8.46479 -0.702121
LeftLeg  13.7711 15.9638 -0.915122
LeftFoot  -14.0791 -0.0304045 -4.78415
LeftToes  1.06247e-005 4.65869e-005 -8.65512e-006
40
root  69.823 39.5412 1.88307 -151.977 -84.1761 147.871
RightUpLeg  -18.0592 -9.09039 -10.3637
RightLeg  45.3713 -3.17493 -3.7483
RightFoot  2.17712 -1.4626 12.4457
RightToes  0.000481921 0.542163 -0.142578
Spine  10.9664 0.0189964 -4.74209
Spine1  1.66559 -0.905437 1.58239
HEad  -4.78421 7.03059 -0.523841
LeftShoulder1  5.89231 -9.51206 -39.0677
LeftArm  -16.2781 8.94519 -23.9474
LeftForeArm  25.1562 -10.4311 -3.54973
LeftHand  -0.25398 0.0180481 5.50724
RightShoulder  3.1049 5.72772 27.6115
RightArm  -7.50503 -22.0021 34.9133
RightForeArm  2.95219 20.7037 4.76279
RightHand  -1.83394 6.9777 -17.5081
LeftUpLeg  1.3732 8.69352 -0.628682
LeftLeg  14.2953 15.2425 -0.788798
LeftFoot  -15.0513 -0.0915279 -5.59932
LeftToes  1.06247e-005 4.65869e-005 -8.65512e-006
41
root  69.5665 39.5503 1.84042 -152.478 -84.8488 148.021
RightUpLeg  -21.7279 -9.8117 -9.74606
RightLeg  50.582 -3.54113 -4.96649
RightFoot  2.53603 -1.49317 12.3668
RightToes  0.000481921 0.542163 -0.142578
Spine  12.5983 -0.650407 -6.18926
Spine1  0.944632 -2.1738 3.64174
HEad  -5.51728 7.82162 -1.23599
LeftShoulder1  6.5221 -10.1228 -41.5173
LeftArm  -11.7957 6.69057 -26.9732
LeftForeArm  29.7598 -12.9436 -4.48798
LeftHand  -0.25398 0.0180481 5.50724
RightShoulder  3.22878 5.75405 28.8847
RightArm  -10.8911 -24.2612 40.7993
RightForeArm  3.16744 18.0595 5.02352
RightHand  -1.85289 6.76424 -17.9674
LeftUpLeg  2.25686 8.97669 -0.0268191
LeftLeg  14.2138 14.0856 -0.865927
LeftFoot  -15.6334 -0.146333 -6.40957
LeftToes  1.06247e-005 4.65869e-005 -8.65512e-006
42
root  69.2353 39.6115 1.77742 -153.929 -85.7867 149.503
RightUpLeg  -24.9002 -10.8599 -8.73125
RightLeg  53.4114 -4.1857 -6.41762
RightFoot  1.7429 -1.33383 11.6946
RightToes  0.000481921 0.542163 -0.142578
Spine  13.7114 -1.46353 -7.25725
Spine1  0.400757 -3.54116 5.81743
HEad  -6.02754 8.28349 -2.30133
LeftShoulder1  6.7932 -10.2663 -42.8741
LeftArm  -4.28586 4.11867 -30.6187
LeftForeArm  32.744 -17.0566 -4.45878
LeftHand  -0.25398 0.0180481 5.50724
RightShoulder  3.42704 5.94881 30.2891
RightArm  -13.126 -26.6307 45.2174
RightForeArm  3.24814 15.2763 5.51164
RightHand  -1.91984 6.84301 -18.4796
LeftUpLeg  3.03739 8.8524 0.665819
LeftLeg  13.564 13.3818 -0.947633
LeftFoot  -15.6377 -0.149303 -6.46858
LeftToes  1.06247e-005 4.65869e-005 -8.65512e-006
43
root  68.8338 39.6716 1.7131 -156.21 -86.5413 152.08
RightUpLeg  -27.6353 -11.9008 -7.75751
RightLeg  54.0298 -4.97733 -7.71484
RightFoot  0.914126 -1.1621 10.8519
RightToes  0.000481921 0.542163 -0.142578
Spine  14.175 -2.22215 -7.92125
Spine1  0.274526 -4.74745 7.70282
HEad  -6.32516 8.66842 -3.25367
LeftShoulder1  7.01028 -10.4443 -43.7249
LeftArm  3.80398 1.54967 -34.191
LeftForeArm  33.4573 -22.3863 -3.56129
LeftHand  -0.25398 0.0180481 5.50724
RightShoulder  3.6756 6.38054 31.2348
RightArm  -12.0792 -29.2296 48.252
RightForeArm  2.98785 13.6302 6.21744
RightHand  -1.90289 6.39681 -18.9845
LeftUpLeg  3.61761 8.2571 1.07139
LeftLeg  12.8448 13.3059 -0.840616
LeftFoot  -15.4713 -0.125265 -6.04083
LeftToes  1.06247e-005 4.65869e-005 -8.65512e-006
44
root  68.3475 39.6867 1.63674 -160.739 -86.8689 156.805
RightUpLeg  -29.415 -12.4082 -7.01552
RightLeg  52.5151 -5.54335 -8.08419
RightFoot  0.0665852 -1.03608 10.3547
RightToes  0.000481921 0.542163 -0.142578
Spine  14.375 -2.73283 -8.24497
Spine1  0.466419 -5.60894 9.13269
HEad  -6.7655 9.05885 -3.96247
LeftShoulder1  7.29952 -10.8078 -44.4104
LeftArm  7.23621 -0.859776 -36.8283
LeftForeArm  36.6458 -28.4658 -4.11781
LeftHand  -0.25398 0.0180481 5.50724
RightShoulder  3.91486 6.90547 31.6647
RightArm  -6.66364 -32.2452 49.8697
RightForeArm  -0.437043 14.8598 6.79974
RightHand  -1.832 5.51114 -19.7069
LeftUpLeg  4.28766 7.84913 1.42152
LeftLeg  12.5541 13.3222 -0.622765
LeftFoot  -15.5665 -0.123495 -5.86975
LeftToes  1.06247e-005 4.65869e-005 -8.65512e-006
45
root  67.7624 39.645 1.52444 -166.768 -86.836 162.828
RightUpLeg  -29.8205 -12.2997 -6.5565
RightLeg  48.9115 -5.83048 -7.4617
RightFoot  -0.884171 -0.969584 10.5053
RightToes  0.000481921 0.542163 -0.142578
Spine  14.7772 -3.04587 -8.39655
Spine1  0.478373 -6.17963 10.131
HEad  -7.48865 9.48027 -4.29976
LeftShoulder1  7.46821 -11.0671 -44.6408
LeftArm  8.34043 -2.71588 -38.6847
LeftForeArm  41.6025 -35.8024 -5.65302
LeftHand  -0.25398 0.0180481 5.50724
RightShoulder  4.0132 7.19572 31.5649
RightArm  1.64403 -35.6667 50.4325
RightForeArm  -8.09083 19.191 6.31623
RightHand  -1.87734 5.29524 -20.5556
LeftUpLeg  5.21694 8.01289 1.98192
LeftLeg  12.6879 13.1804 -0.501927
LeftFoot  -15.9406 -0.139544 -5.85167
LeftToes  1.06247e-005 4.65869e-005 -8.65512e-006
46
root  67.0799 39.5473 1.37416 -169.656 -86.6569 165.813
RightUpLeg  -29.3308 -11.9598 -6.44588
RightLeg  43.971 -6.10252 -6.56374
RightFoot  -1.76213 -0.907586 10.6549
RightToes  0.000481921 0.542163 -0.142578
Spine  15.4398 -3.33238 -8.63912
Spine1  -0.241553 -6.61898 10.8628
HEad  -8.27854 10.0887 -4.1384
LeftShoulder1  7.38321 -11.0431 -44.1843
LeftArm  8.14731 -3.62735 -40.1047
LeftForeArm  47.7765 -43.9804 -7.6233
LeftHand  -0.25398 0.0180481 5.50724
RightShoulder  3.79459 6.85833 30.6575
RightArm  7.32898 -39.0211 50.3021
RightForeArm  -14.499 24.9072 5.9014
RightHand  -2.19097 6.3804 -21.7422
LeftUpLeg  6.16154 8.34392 2.52507
LeftLeg  12.9541 12.9851 -0.55412
LeftFoot  -16.6133 -0.161729 -5.67442
LeftToes  1.06247e-005 4.65869e-005 -8.65512e-006
